<?xml version="1.0" encoding="UTF-8" standalone="no"?>
<!DOCTYPE svg PUBLIC "-//W3C//DTD SVG 1.1//EN" "http://www.w3.org/Graphics/SVG/1.1/DTD/svg11.dtd">
<svg width="100%" height="100%" viewBox="0 0 31 50" version="1.1" xmlns="http://www.w3.org/2000/svg" xmlns:xlink="http://www.w3.org/1999/xlink" xml:space="preserve" xmlns:serif="http://www.serif.com/" style="fill-rule:evenodd;clip-rule:evenodd;stroke-linejoin:round;stroke-miterlimit:1.5;">
    <g transform="matrix(0.528501,0,0,0.528501,-388.35,-488.279)">
        <g>
            <g transform="matrix(0.99808,-0.343559,0.271231,0.787958,-409.789,688.371)">
                <path d="M957.582,758C957.582,755.239 954.224,753 950.082,753C945.939,753 942.582,755.239 942.582,758L957.582,758Z" style="fill:white;"/>
            </g>
            <g transform="matrix(-0.99808,-0.343559,-0.271231,0.787958,1941.25,688.371)">
                <path d="M957.582,758C957.582,755.239 954.224,753 950.082,753C945.939,753 942.582,755.239 942.582,758L957.582,758Z" style="fill:white;"/>
            </g>
            <g transform="matrix(1.33333,0,0,1.66667,-99.6667,-355.474)">
                <path d="M664,776C664,772.689 660.639,768 656.5,768L641.5,768C637.361,768 634,772.689 634,776L634,819C634,822.311 637.361,824 641.5,824L656.5,824C660.639,824 664,822.311 664,819L664,776Z" style="fill:white;stroke:rgb(215,215,215);stroke-width:0.84px;"/>
            </g>
            <g id="turn-front-left" serif:id="turn front left" transform="matrix(1.66667,0,0,1.66667,-845.303,-364.415)">
                <path d="M956.582,778C956.539,776.475 959.582,774.5 959.582,774.5C959.582,774.5 960.102,776.48 958.582,778C957.522,779.059 956.596,778.501 956.582,778Z" style="fill:white;"/>
                <g>
                    <clipPath id="_clip1">
                        <path d="M956.582,778C956.539,776.475 959.582,774.5 959.582,774.5C959.582,774.5 960.102,776.48 958.582,778C957.522,779.059 956.596,778.501 956.582,778Z"/>
                    </clipPath>
                    <g clip-path="url(#_clip1)">
                        <g transform="matrix(2.38959,0,0,1.19656,-1329.26,-153.041)">
                            <rect x="956.582" y="776.552" width="0.418" height="2.052" style="fill:rgb(255,183,0);"/>
                        </g>
                    </g>
                </g>
                <path d="M956.582,778C956.539,776.475 959.582,774.5 959.582,774.5C959.582,774.5 960.102,776.48 958.582,778C957.522,779.059 956.596,778.501 956.582,778Z" style="fill:none;stroke:rgb(153,153,153);stroke-width:0.3px;stroke-linecap:round;"/>
            </g>
            <g id="turn-front-right" serif:id="turn front right" transform="matrix(-1.66667,0,0,1.66667,2376.64,-364.415)">
                <path d="M956.582,778C956.539,776.475 959.582,774.5 959.582,774.5C959.582,774.5 960.102,776.48 958.582,778C957.522,779.059 956.596,778.501 956.582,778Z" style="fill:white;"/>
                <g>
                    <clipPath id="_clip2">
                        <path d="M956.582,778C956.539,776.475 959.582,774.5 959.582,774.5C959.582,774.5 960.102,776.48 958.582,778C957.522,779.059 956.596,778.501 956.582,778Z"/>
                    </clipPath>
                    <g clip-path="url(#_clip2)">
                        <g transform="matrix(2.38959,0,0,1.19656,-1329.26,-153.041)">
                            <rect x="956.582" y="776.552" width="0.418" height="2.052" style="fill:rgb(255,183,0);"/>
                        </g>
                    </g>
                </g>
                <path d="M956.582,778C956.539,776.475 959.582,774.5 959.582,774.5C959.582,774.5 960.102,776.48 958.582,778C957.522,779.059 956.596,778.501 956.582,778Z" style="fill:none;stroke:rgb(153,153,153);stroke-width:0.3px;stroke-linecap:round;"/>
            </g>
            <g id="turn-back-left" serif:id="turn back left" transform="matrix(1.66667,0,0,1.66667,-845.303,-363.661)">
                <path d="M960.582,828L960.082,826L955.582,824C955.339,826.655 958.998,827.918 960.582,828Z" style="fill:rgb(229,58,37);"/>
                <g>
                    <clipPath id="_clip3">
                        <path d="M960.582,828L960.082,826L955.582,824C955.339,826.655 958.998,827.918 960.582,828Z"/>
                    </clipPath>
                    <g clip-path="url(#_clip3)">
                        <rect x="955" y="823.5" width="2" height="4" style="fill:rgb(255,183,0);"/>
                    </g>
                </g>
                <path d="M960.582,828L960.082,826L955.582,824C955.339,826.655 958.998,827.918 960.582,828Z" style="fill:none;stroke:rgb(153,153,153);stroke-width:0.3px;stroke-linecap:round;"/>
            </g>
            <g id="turn-back-right" serif:id="turn back right" transform="matrix(-1.66667,0,0,1.66667,2376.64,-363.661)">
                <path d="M960.582,828L960.082,826L955.582,824C955.339,826.655 958.998,827.918 960.582,828Z" style="fill:rgb(229,58,37);"/>
                <g>
                    <clipPath id="_clip4">
                        <path d="M960.582,828L960.082,826L955.582,824C955.339,826.655 958.998,827.918 960.582,828Z"/>
                    </clipPath>
                    <g clip-path="url(#_clip4)">
                        <rect x="955" y="823.5" width="2" height="4" style="fill:rgb(255,183,0);"/>
                    </g>
                </g>
                <path d="M960.582,828L960.082,826L955.582,824C955.339,826.655 958.998,827.918 960.582,828Z" style="fill:none;stroke:rgb(153,153,153);stroke-width:0.3px;stroke-linecap:round;"/>
            </g>
            <g transform="matrix(1.16667,0,0,0.966667,8.5,205.493)">
                <path d="M664,783.052C664,778.056 660.639,774 656.5,774L641.5,774C637.361,774 634,778.056 634,783.052L634,814.948C634,819.944 637.361,824 641.5,824L656.5,824C660.639,824 664,819.944 664,814.948L664,783.052Z" style="fill:rgb(5,56,77);"/>
            </g>
            <g transform="matrix(1.66667,1.50805e-14,1.5173e-14,1.66667,-845.303,-362.141)">
                <path d="M957.582,818L960.582,810" style="fill:none;stroke:white;stroke-width:0.76px;stroke-linejoin:bevel;"/>
            </g>
            <g transform="matrix(-1.66667,0,0,1.66667,2376.64,-362.141)">
                <path d="M957.582,818L960.582,810" style="fill:none;stroke:white;stroke-width:0.76px;stroke-linejoin:bevel;"/>
            </g>
            <g transform="matrix(-1.66667,0,0,-1.66667,2376.64,2319.53)">
                <path d="M957.582,819L959.582,809" style="fill:none;stroke:white;stroke-width:0.76px;stroke-linejoin:bevel;"/>
            </g>
            <g transform="matrix(1.65618,-0.0384615,0.0384615,-1.52564,-865.93,2240.84)">
                <path d="M957.082,819L959.349,808.018" style="fill:none;stroke:white;stroke-width:0.77px;stroke-linejoin:bevel;"/>
            </g>
            <g transform="matrix(1.66667,0,0,2.33333,-846.136,-899.474)">
                <rect x="959.582" y="801" width="15" height="10" style="fill:white;"/>
            </g>
        </g>
    </g>
</svg>
